<?xml version="1.0" standalone="no"?>
<!DOCTYPE svg PUBLIC "-//W3C//DTD SVG 20010904//EN"
 "http://www.w3.org/TR/2001/REC-SVG-20010904/DTD/svg10.dtd">
<svg version="1.0" xmlns="http://www.w3.org/2000/svg"
 width="500.000000pt" height="500.000000pt" viewBox="0 0 500.000000 500.000000"
 preserveAspectRatio="xMidYMid meet">
<metadata>
Created by potrace 1.14, written by Peter Selinger 2001-2017
</metadata>
<g transform="translate(0.000000,500.000000) scale(0.100000,-0.100000)"
fill="#000000" stroke="none">
<path d="M1942 3926 c-9 -5 -27 -18 -40 -30 -15 -13 -39 -22 -63 -23 -72 -3
-115 -49 -99 -105 6 -18 4 -33 -6 -45 -18 -24 -18 -57 1 -92 16 -32 24 -37 89
-46 33 -5 46 -12 47 -24 2 -65 1 -773 -2 -774 -2 -2 -30 -20 -62 -40 -54 -35
-61 -37 -93 -27 -40 13 -91 1 -119 -30 -12 -13 -29 -18 -62 -17 -44 2 -72 -16
-85 -55 -3 -9 -14 -7 -40 5 -91 43 -168 -2 -168 -98 0 -46 20 -93 59 -137 25
-29 30 -40 23 -59 -10 -29 -9 -295 2 -359 43 -259 227 -473 483 -561 51 -17
164 -36 191 -31 8 2 12 -15 12 -60 0 -41 5 -71 16 -86 l15 -22 453 0 c525 0
486 -8 486 101 l0 64 50 3 c73 4 206 45 284 89 123 69 251 208 302 329 46 109
56 166 59 344 2 135 -1 181 -11 203 -8 15 -19 27 -23 27 -5 0 -7 15 -3 33 31
167 -38 352 -158 425 -63 37 -104 41 -159 13 -45 -24 -131 -115 -155 -165 -9
-20 -19 -36 -20 -36 -2 0 -37 16 -77 34 -41 19 -103 41 -139 48 -36 7 -67 15
-70 18 -3 3 -18 16 -34 28 -27 20 -30 21 -60 6 -17 -9 -38 -22 -46 -29 -8 -6
-43 -20 -77 -29 l-63 -17 -35 27 c-36 27 -42 39 -25 49 19 12 10 52 -20 81
l-29 29 -1 303 0 304 28 -6 c15 -4 44 -9 65 -11 21 -3 144 -21 275 -41 130
-20 248 -37 262 -39 14 -2 41 -6 60 -9 109 -15 362 -53 720 -107 431 -65 464
-68 499 -50 28 15 61 69 61 99 0 36 -25 86 -52 104 -17 11 -105 26 -279 48
-322 39 -329 40 -359 45 -14 2 -52 7 -85 10 -62 7 -93 11 -160 20 -22 3 -60 8
-85 10 -25 3 -61 7 -80 10 -19 3 -57 7 -85 10 -52 6 -188 23 -240 30 -16 2
-56 7 -88 10 -32 4 -67 8 -79 10 -11 3 -46 7 -77 10 -31 3 -65 8 -76 10 -11 2
-52 7 -92 11 -189 17 -107 23 277 19 228 -3 661 -8 961 -11 578 -7 571 -7 612
39 33 38 34 95 2 144 -26 40 -62 48 -192 47 -65 -1 -383 -5 -708 -9 -324 -4
-706 -8 -847 -10 -142 -2 -258 0 -258 5 0 4 -12 16 -27 26 -25 16 -53 18 -246
19 -120 0 -225 -4 -235 -9z"/>
<path d="M2178 835 c-1 -1 -64 -5 -138 -9 -230 -10 -367 -26 -457 -52 -95 -27
-59 -53 112 -78 156 -24 503 -40 830 -40 204 1 540 11 610 19 17 1 64 6 105 9
185 16 301 50 259 77 -20 13 -75 27 -139 34 -30 4 -57 8 -60 10 -3 1 -52 6
-110 10 -58 4 -121 9 -140 11 -39 5 -866 14 -872 9z"/>
</g>
</svg>
